<svg width="24" height="24" viewBox="0 0 24 24" fill="none" xmlns="http://www.w3.org/2000/svg">
<g opacity="0.5">
<path fill-rule="evenodd" clip-rule="evenodd" d="M3.29263 3.29259C3.68363 2.90259 4.31663 2.90259 4.70663 3.29259L20.7066 19.2926C21.0976 19.6836 21.0976 20.3166 20.7066 20.7066C20.5116 20.9026 20.2556 20.9996 19.9996 20.9996C19.7436 20.9996 19.4886 20.9026 19.2926 20.7066L13.6626 15.0766C13.1546 15.3526 12.5896 15.4996 11.9996 15.4996C10.0706 15.4996 8.49963 13.9296 8.49963 11.9996C8.49963 11.4106 8.64663 10.8456 8.92363 10.3376L3.29263 4.70659C2.90263 4.31659 2.90263 3.68359 3.29263 3.29259ZM18.9546 16.1266C20.4766 14.7386 21.4526 13.2206 21.8676 12.4976C22.0436 12.1896 22.0436 11.8106 21.8676 11.5026C21.2296 10.3906 17.7046 4.81659 11.7296 5.00359C10.5446 5.03359 9.47363 5.28959 8.50163 5.67359L10.0816 7.25359C10.6176 7.11159 11.1806 7.01759 11.7806 7.00259C16.0716 6.89359 18.8946 10.5856 19.8266 12.0046C19.3706 12.7186 18.6036 13.7646 17.5436 14.7156L18.9546 16.1266ZM15.4976 18.3266L13.9176 16.7466C13.3826 16.8886 12.8196 16.9826 12.2196 16.9976C7.91463 17.0976 5.10463 13.4146 4.17263 11.9956C4.62963 11.2816 5.39563 10.2356 6.45563 9.28459L5.04463 7.87259C3.52263 9.26159 2.54663 10.7796 2.13263 11.5026C1.95563 11.8106 1.95563 12.1896 2.13263 12.4976C2.76163 13.5946 6.16163 18.9996 12.0246 18.9996C12.1066 18.9996 12.1886 18.9986 12.2706 18.9966C13.4546 18.9666 14.5266 18.7106 15.4976 18.3266ZM11.9996 13.4996C11.1726 13.4996 10.4996 12.8276 10.4996 11.9996C10.4996 11.9867 10.5026 11.9743 10.5055 11.9617C10.5083 11.95 10.5111 11.9381 10.5116 11.9256L12.0746 13.4886C12.0623 13.4891 12.0506 13.4916 12.0389 13.4941L12.0389 13.4941L12.0389 13.4941C12.0261 13.4968 12.0133 13.4996 11.9996 13.4996Z" fill="#0D1C2E"/>
</g>
</svg>
